<svg width="146" height="50" viewBox="0 0 146 50" fill="none" xmlns="http://www.w3.org/2000/svg">
<path d="M62.1302 25.6412C62.1302 32.5814 56.7679 37.6956 50.1872 37.6956C43.6064 37.6956 38.2441 32.5814 38.2441 25.6412C38.2441 18.6521 43.6064 13.5869 50.1872 13.5869C56.7679 13.5869 62.1302 18.6521 62.1302 25.6412ZM56.9021 25.6412C56.9021 21.3043 53.7942 18.3369 50.1872 18.3369C46.5801 18.3369 43.4722 21.3043 43.4722 25.6412C43.4722 29.9347 46.5801 32.9456 50.1872 32.9456C53.7942 32.9456 56.9021 29.9293 56.9021 25.6412Z" fill="#EA4335"/>
<path d="M87.8948 25.6412C87.8948 32.5814 82.5325 37.6956 75.9518 37.6956C69.3711 37.6956 64.0088 32.5814 64.0088 25.6412C64.0088 18.6575 69.3711 13.5869 75.9518 13.5869C82.5325 13.5869 87.8948 18.6521 87.8948 25.6412ZM82.6667 25.6412C82.6667 21.3043 79.5589 18.3369 75.9518 18.3369C72.3447 18.3369 69.2369 21.3043 69.2369 25.6412C69.2369 29.9347 72.3447 32.9456 75.9518 32.9456C79.5589 32.9456 82.6667 29.9293 82.6667 25.6412Z" fill="#FBBC05"/>
<path d="M112.586 14.3151V35.9564C112.586 44.8586 107.401 48.4945 101.271 48.4945C95.5007 48.4945 92.0278 44.5869 90.7181 41.3912L95.2699 39.4727C96.0804 41.4347 98.0665 43.7499 101.266 43.7499C105.189 43.7499 107.621 41.2988 107.621 36.6847V34.951H107.438C106.268 36.413 104.014 37.6901 101.169 37.6901C95.2162 37.6901 89.7627 32.4401 89.7627 25.6847C89.7627 18.8804 95.2162 13.5869 101.169 13.5869C104.008 13.5869 106.263 14.8641 107.438 16.2825H107.621V14.3206H112.586V14.3151ZM107.991 25.6847C107.991 21.4401 105.195 18.3369 101.636 18.3369C98.0289 18.3369 95.0069 21.4401 95.0069 25.6847C95.0069 29.8858 98.0289 32.9456 101.636 32.9456C105.195 32.9456 107.991 29.8858 107.991 25.6847Z" fill="#4285F4"/>
<path d="M120.772 1.6304V36.9565H115.673V1.6304H120.772Z" fill="#34A853"/>
<path d="M140.643 29.6087L144.701 32.3478C143.392 34.3097 140.236 37.6902 134.782 37.6902C128.019 37.6902 122.968 32.3967 122.968 25.6358C122.968 18.4674 128.062 13.5815 134.197 13.5815C140.375 13.5815 143.397 18.5597 144.385 21.25L144.927 22.6195L129.012 29.2934C130.23 31.7119 132.125 32.9456 134.782 32.9456C137.444 32.9456 139.291 31.6195 140.643 29.6087ZM128.153 25.2717L138.792 20.7989C138.207 19.2934 136.446 18.2445 134.374 18.2445C131.717 18.2445 128.019 20.6195 128.153 25.2717Z" fill="#EA4335"/>
<path d="M18.9426 22.5054V17.3913H35.9634C36.1298 18.2826 36.2156 19.3369 36.2156 20.4782C36.2156 24.3152 35.1797 29.0597 31.841 32.4402C28.5936 35.8641 24.4444 37.6902 18.9479 37.6902C8.76012 37.6902 0.193359 29.288 0.193359 18.9728C0.193359 8.65757 8.76012 0.255402 18.9479 0.255402C24.5839 0.255402 28.5989 2.49453 31.6156 5.41301L28.0514 9.02171C25.8883 6.96736 22.9576 5.36953 18.9426 5.36953C11.503 5.36953 5.68446 11.4402 5.68446 18.9728C5.68446 26.5054 11.503 32.5761 18.9426 32.5761C23.7681 32.5761 26.5163 30.6141 28.2769 28.8315C29.7047 27.3858 30.644 25.3206 31.0144 22.5L18.9426 22.5054Z" fill="#4285F4"/>
</svg>
